<svg height="512" viewBox="0 0 128 128" width="512" xmlns="http://www.w3.org/2000/svg"><g><g><circle cx="64" cy="63.997" fill="#fedb41" r="39.247"/><g fill="#fea832"><path d="m95.247 65.747a1.749 1.749 0 0 1 -1.747-1.747 29.53 29.53 0 0 0 -29.5-29.5 1.75 1.75 0 0 1 0-3.5 33.035 33.035 0 0 1 33 33 1.749 1.749 0 0 1 -1.753 1.747z"/><g><path d="m64 16.75a47.252 47.252 0 0 1 8.5.781c.038-.545.063-1.1.063-1.658-.001-7.801-8.563-14.126-8.563-14.126s-8.563 6.325-8.563 14.126c0 .562.026 1.113.064 1.658a47.243 47.243 0 0 1 8.499-.781z"/><path d="m64 111.244a47.343 47.343 0 0 0 8.5-.78c.038.544.063 1.095.063 1.657 0 7.8-8.562 14.126-8.562 14.126s-8.563-6.324-8.563-14.126c0-.562.026-1.113.064-1.657a47.335 47.335 0 0 0 8.498.78z"/><path d="m97.409 30.588a47.349 47.349 0 0 1 5.457 6.562c.413-.358.82-.73 1.217-1.127 5.517-5.517 3.934-16.043 3.934-16.043s-10.526-1.58-16.043 3.934c-.4.4-.769.8-1.127 1.217a47.349 47.349 0 0 1 6.562 5.457z"/><path d="m30.591 97.406a47.232 47.232 0 0 0 6.562 5.457c-.358.413-.73.82-1.127 1.217-5.517 5.517-16.043 3.934-16.043 3.934s-1.583-10.526 3.934-16.043c.4-.4.8-.769 1.217-1.127a47.291 47.291 0 0 0 5.457 6.562z"/><path d="m111.247 64a47.335 47.335 0 0 1 -.78 8.5c.544.038 1.095.064 1.657.064 7.8 0 14.126-8.563 14.126-8.563s-6.325-8.562-14.126-8.562c-.562 0-1.113.025-1.657.063a47.343 47.343 0 0 1 .78 8.498z"/><path d="m16.753 64a47.335 47.335 0 0 0 .78 8.5c-.544.038-1.1.064-1.657.064-7.801-.004-14.126-8.564-14.126-8.564s6.325-8.562 14.126-8.562c.562 0 1.113.025 1.657.063a47.343 47.343 0 0 0 -.78 8.499z"/><path d="m97.409 97.406a47.349 47.349 0 0 1 -6.562 5.457c.358.413.73.82 1.127 1.217 5.517 5.517 16.043 3.934 16.043 3.934s1.583-10.526-3.934-16.043c-.4-.4-.8-.769-1.217-1.127a47.291 47.291 0 0 1 -5.457 6.562z"/><path d="m30.591 30.588a47.349 47.349 0 0 0 -5.457 6.562c-.413-.358-.82-.73-1.217-1.127-5.517-5.517-3.934-16.043-3.934-16.043s10.526-1.58 16.043 3.934c.4.4.769.8 1.127 1.217a47.291 47.291 0 0 0 -6.562 5.457z"/></g></g></g><g><path d="m25.762 73.052a1.751 1.751 0 0 0 -1.206 2.162 41.014 41.014 0 0 0 2.067 5.652 1.751 1.751 0 0 0 1.6 1.03 1.752 1.752 0 0 0 1.594-2.471 37.461 37.461 0 0 1 -1.89-5.168 1.751 1.751 0 0 0 -2.165-1.205z"/><path d="m34.6 90.05a1.748 1.748 0 0 0 -.039 2.474 41 41 0 1 0 -11.561-28.524 1.75 1.75 0 0 0 3.5 0 37.5 37.5 0 1 1 10.569 26.089 1.749 1.749 0 0 0 -2.469-.039z"/><path d="m93.5 64a1.75 1.75 0 0 0 3.5 0 33.035 33.035 0 0 0 -33-33 1.75 1.75 0 0 0 0 3.5 29.53 29.53 0 0 1 29.5 29.5z"/><path d="m54.429 18.913a1.754 1.754 0 0 0 1.386.339 45.171 45.171 0 0 1 16.37 0 1.752 1.752 0 0 0 2.06-1.6c.04-.584.067-1.175.067-1.779 0-8.586-8.894-15.254-9.272-15.533a1.749 1.749 0 0 0 -2.08 0c-.379.279-9.273 6.947-9.273 15.533 0 .605.027 1.2.069 1.781a1.75 1.75 0 0 0 .673 1.259zm9.571-14.899c2.083 1.827 6.584 6.347 6.8 11.47a48.165 48.165 0 0 0 -13.608 0c.224-5.123 4.725-9.644 6.808-11.47z"/><path d="m73.572 109.082a1.747 1.747 0 0 0 -1.387-.34 45.127 45.127 0 0 1 -16.37 0 1.75 1.75 0 0 0 -2.059 1.6c-.042.585-.069 1.178-.069 1.781 0 8.586 8.894 15.254 9.273 15.533a1.748 1.748 0 0 0 2.08 0c.378-.279 9.272-6.947 9.272-15.533 0-.6-.027-1.195-.067-1.779a1.747 1.747 0 0 0 -.673-1.262zm-9.572 14.898c-2.084-1.827-6.584-6.347-6.8-11.47a48.165 48.165 0 0 0 13.608 0c-.224 5.123-4.726 9.644-6.808 11.47z"/><path d="m89.852 26.57a44.855 44.855 0 0 1 11.575 11.575 1.75 1.75 0 0 0 2.879-1.991 49.281 49.281 0 0 0 -5.66-6.8 48.709 48.709 0 0 0 -5.153-4.469c3.779-3.467 10.16-3.484 12.923-3.3a27.149 27.149 0 0 1 -.131 5.051 1.75 1.75 0 1 0 3.473.433 29.7 29.7 0 0 0 -.01-7.347 1.75 1.75 0 0 0 -1.471-1.47c-.465-.069-11.469-1.643-17.543 4.429-.425.426-.825.864-1.209 1.306a1.75 1.75 0 0 0 .327 2.586z"/><path d="m38.148 101.424a44.913 44.913 0 0 1 -11.575-11.574 1.75 1.75 0 0 0 -1.22-.742 1.772 1.772 0 0 0 -1.365.414c-.444.384-.881.785-1.308 1.211-6.072 6.072-4.5 17.077-4.428 17.541a1.749 1.749 0 0 0 1.47 1.471 26.842 26.842 0 0 0 3.709.234c3.866 0 9.889-.718 13.831-4.66.427-.426.827-.865 1.212-1.308a1.75 1.75 0 0 0 -.326-2.587zm-16.563 4.988c-.181-2.765-.166-9.145 3.3-12.923a48.956 48.956 0 0 0 4.468 5.155 48.816 48.816 0 0 0 5.153 4.468c-3.777 3.467-10.156 3.482-12.921 3.3z"/><path d="m127.657 62.957c-.279-.378-6.947-9.272-15.533-9.272-.6 0-1.195.027-1.779.067a1.751 1.751 0 0 0 -1.6 2.059 44.931 44.931 0 0 1 0 16.372 1.751 1.751 0 0 0 1.6 2.059c.584.04 1.176.068 1.779.068 8.586 0 15.254-8.895 15.533-9.273a1.749 1.749 0 0 0 0-2.08zm-15.144 7.843a48.067 48.067 0 0 0 0-13.608c5.123.22 9.644 4.722 11.47 6.8-1.827 2.088-6.347 6.589-11.47 6.808z"/><path d="m18.915 73.569a1.747 1.747 0 0 0 .34-1.387 44.915 44.915 0 0 1 0-16.369 1.752 1.752 0 0 0 -1.6-2.061c-.584-.041-1.176-.067-1.779-.067-8.586 0-15.254 8.894-15.534 9.272a1.752 1.752 0 0 0 0 2.08c.28.378 6.948 9.273 15.534 9.273.6 0 1.2-.027 1.779-.068a1.747 1.747 0 0 0 1.26-.673zm-3.428-2.769c-5.123-.22-9.644-4.722-11.47-6.8 1.827-2.083 6.347-6.584 11.47-6.8a48.067 48.067 0 0 0 0 13.608z"/><path d="m104.013 89.522a1.772 1.772 0 0 0 -1.367-.414 1.75 1.75 0 0 0 -1.219.742 44.872 44.872 0 0 1 -11.575 11.574 1.75 1.75 0 0 0 -.327 2.586c.385.443.785.882 1.211 1.307 3.944 3.944 9.967 4.662 13.833 4.661a26.9 26.9 0 0 0 3.708-.233 1.75 1.75 0 0 0 1.471-1.471c.07-.464 1.644-11.469-4.428-17.541-.426-.426-.864-.826-1.307-1.211zm2.4 16.89c-2.765.179-9.145.166-12.922-3.3a48.028 48.028 0 0 0 9.622-9.622c3.468 3.779 3.487 10.157 3.302 12.922z"/><path d="m23.988 38.472a1.75 1.75 0 0 0 1.146.427 1.787 1.787 0 0 0 .219-.013 1.752 1.752 0 0 0 1.22-.741 44.9 44.9 0 0 1 11.575-11.575 1.75 1.75 0 0 0 .326-2.587c-.384-.442-.784-.88-1.211-1.306-6.071-6.072-17.076-4.5-17.541-4.428a1.749 1.749 0 0 0 -1.47 1.471c-.07.465-1.644 11.47 4.428 17.542.427.426.864.826 1.308 1.21zm-2.4-16.89c2.763-.184 9.143-.167 12.922 3.3a48.709 48.709 0 0 0 -5.153 4.469 49.033 49.033 0 0 0 -4.472 5.149c-3.466-3.774-3.485-10.153-3.3-12.918z"/></g></g></svg>